<svg xmlns="http://www.w3.org/2000/svg" viewBox="0 0 600 180" role="img" data-question="entrance-200-172" data-type="odd-one-out" data-model='{"rule":"arrow"}'><defs><pattern id="stripes" width="7" height="7" patternUnits="userSpaceOnUse" patternTransform="rotate(45)"><rect width="7" height="7" fill="#fff"/><line x1="0" y1="0" x2="0" y2="7" stroke="#174e42" stroke-width="3"/></pattern></defs><rect width="600" height="180" rx="12" fill="#f8faf7"/><g font-family="Arial,sans-serif" font-size="18" fill="#142e27"><text x="24" y="32" font-size="18" text-anchor="start" font-weight="normal">Which figure is the odd one out?</text><g data-role="option" data-label="A" transform="translate(30 55)" data-model='{"spot":1,"arrow":1,"fill":"white","match":true}'><circle cx="40" cy="40" r="37" fill="#fff" stroke="#174e42" stroke-width="2.5"/><circle cx="69" cy="40" r="6" fill="#fff" stroke="#174e42" stroke-width="2"/><g transform="rotate(90 40 40)"><path d="M40 24 L49 35 H43 V54 H37 V35 H31 Z" fill="#174e42"/></g></g><text x="70" y="160" font-size="18" text-anchor="middle" font-weight="normal">A</text><g data-role="option" data-label="B" transform="translate(145 55)" data-model='{"spot":1,"arrow":1,"fill":"black","match":true}'><circle cx="40" cy="40" r="37" fill="#fff" stroke="#174e42" stroke-width="2.5"/><circle cx="69" cy="40" r="6" fill="#174e42" stroke="#174e42" stroke-width="2"/><g transform="rotate(90 40 40)"><path d="M40 24 L49 35 H43 V54 H37 V35 H31 Z" fill="#174e42"/></g></g><text x="185" y="160" font-size="18" text-anchor="middle" font-weight="normal">B</text><g data-role="option" data-label="C" transform="translate(260 55)" data-model='{"spot":2,"arrow":2,"fill":"white","match":true}'><circle cx="40" cy="40" r="37" fill="#fff" stroke="#174e42" stroke-width="2.5"/><circle cx="40" cy="69" r="6" fill="#fff" stroke="#174e42" stroke-width="2"/><g transform="rotate(180 40 40)"><path d="M40 24 L49 35 H43 V54 H37 V35 H31 Z" fill="#174e42"/></g></g><text x="300" y="160" font-size="18" text-anchor="middle" font-weight="normal">C</text><g data-role="option" data-label="D" transform="translate(375 55)" data-model='{"spot":1,"arrow":3,"fill":"black","match":false}'><circle cx="40" cy="40" r="37" fill="#fff" stroke="#174e42" stroke-width="2.5"/><circle cx="69" cy="40" r="6" fill="#174e42" stroke="#174e42" stroke-width="2"/><g transform="rotate(270 40 40)"><path d="M40 24 L49 35 H43 V54 H37 V35 H31 Z" fill="#174e42"/></g></g><text x="415" y="160" font-size="18" text-anchor="middle" font-weight="normal">D</text><g data-role="option" data-label="E" transform="translate(490 55)" data-model='{"spot":2,"arrow":2,"fill":"black","match":true}'><circle cx="40" cy="40" r="37" fill="#fff" stroke="#174e42" stroke-width="2.5"/><circle cx="40" cy="69" r="6" fill="#174e42" stroke="#174e42" stroke-width="2"/><g transform="rotate(180 40 40)"><path d="M40 24 L49 35 H43 V54 H37 V35 H31 Z" fill="#174e42"/></g></g><text x="530" y="160" font-size="18" text-anchor="middle" font-weight="normal">E</text></g></svg>