<svg xmlns="http://www.w3.org/2000/svg" viewBox="0 0 600 265" role="img" data-question="entrance-200-178" data-type="matrix" data-model='{"kind":"count"}'><defs><pattern id="stripes" width="7" height="7" patternUnits="userSpaceOnUse" patternTransform="rotate(45)"><rect width="7" height="7" fill="#fff"/><line x1="0" y1="0" x2="0" y2="7" stroke="#174e42" stroke-width="3"/></pattern></defs><rect width="600" height="265" rx="12" fill="#f8faf7"/><g font-family="Arial,sans-serif" font-size="18" fill="#142e27"><text x="24" y="30" font-size="18" text-anchor="start" font-weight="normal">Which option completes the grid?</text><rect x="40" y="45" width="64" height="64" fill="#fff" stroke="#174e42" stroke-width="1.5"/><g data-role="cell" data-label="00" transform="translate(41 46)" data-model='{"shape":"pentagon","count":2}'><polygon points="21.5,22.5 29.6,28.4 26.5,37.9 16.5,37.9 13.4,28.4" fill="#174e42" stroke="#174e42" stroke-width="1.5" stroke-linejoin="round"/><polygon points="40.5,22.5 48.6,28.4 45.5,37.9 35.5,37.9 32.4,28.4" fill="#174e42" stroke="#174e42" stroke-width="1.5" stroke-linejoin="round"/></g><rect x="110" y="45" width="64" height="64" fill="#fff" stroke="#174e42" stroke-width="1.5"/><g data-role="cell" data-label="01" transform="translate(111 46)" data-model='{"shape":"pentagon","count":3}'><polygon points="12.0,22.5 20.1,28.4 17.0,37.9 7.0,37.9 3.9,28.4" fill="#174e42" stroke="#174e42" stroke-width="1.5" stroke-linejoin="round"/><polygon points="31.0,22.5 39.1,28.4 36.0,37.9 26.0,37.9 22.9,28.4" fill="#174e42" stroke="#174e42" stroke-width="1.5" stroke-linejoin="round"/><polygon points="50.0,22.5 58.1,28.4 55.0,37.9 45.0,37.9 41.9,28.4" fill="#174e42" stroke="#174e42" stroke-width="1.5" stroke-linejoin="round"/></g><rect x="180" y="45" width="64" height="64" fill="#fff" stroke="#174e42" stroke-width="1.5"/><g data-role="cell" data-label="02" transform="translate(181 46)" data-model='{"shape":"pentagon","count":1}'><polygon points="31.0,22.5 39.1,28.4 36.0,37.9 26.0,37.9 22.9,28.4" fill="#174e42" stroke="#174e42" stroke-width="1.5" stroke-linejoin="round"/></g><rect x="40" y="115" width="64" height="64" fill="#fff" stroke="#174e42" stroke-width="1.5"/><g data-role="cell" data-label="10" transform="translate(41 116)" data-model='{"shape":"square","count":2}'><polygon points="27.5,25.0 27.5,37.0 15.5,37.0 15.5,25.0" fill="#174e42" stroke="#174e42" stroke-width="1.5" stroke-linejoin="round"/><polygon points="46.5,25.0 46.5,37.0 34.5,37.0 34.5,25.0" fill="#174e42" stroke="#174e42" stroke-width="1.5" stroke-linejoin="round"/></g><rect x="110" y="115" width="64" height="64" fill="#fff" stroke="#174e42" stroke-width="1.5"/><g data-role="cell" data-label="11" transform="translate(111 116)" data-model='{"shape":"square","count":3}'><polygon points="18.0,25.0 18.0,37.0 6.0,37.0 6.0,25.0" fill="#174e42" stroke="#174e42" stroke-width="1.5" stroke-linejoin="round"/><polygon points="37.0,25.0 37.0,37.0 25.0,37.0 25.0,25.0" fill="#174e42" stroke="#174e42" stroke-width="1.5" stroke-linejoin="round"/><polygon points="56.0,25.0 56.0,37.0 44.0,37.0 44.0,25.0" fill="#174e42" stroke="#174e42" stroke-width="1.5" stroke-linejoin="round"/></g><rect x="180" y="115" width="64" height="64" fill="#fff" stroke="#174e42" stroke-width="1.5"/><g data-role="cell" data-label="12" transform="translate(181 116)" data-model='{"shape":"square","count":1}'><polygon points="37.0,25.0 37.0,37.0 25.0,37.0 25.0,25.0" fill="#174e42" stroke="#174e42" stroke-width="1.5" stroke-linejoin="round"/></g><rect x="40" y="185" width="64" height="64" fill="#fff" stroke="#174e42" stroke-width="1.5"/><g data-role="cell" data-label="20" transform="translate(41 186)" data-model='{"shape":"circle","count":2}'><circle cx="21.5" cy="31" r="7" fill="#174e42" stroke="#174e42" stroke-width="1.5"/><circle cx="40.5" cy="31" r="7" fill="#174e42" stroke="#174e42" stroke-width="1.5"/></g><rect x="110" y="185" width="64" height="64" fill="#fff" stroke="#174e42" stroke-width="1.5"/><g data-role="cell" data-label="21" transform="translate(111 186)" data-model='{"shape":"circle","count":3}'><circle cx="12.0" cy="31" r="7" fill="#174e42" stroke="#174e42" stroke-width="1.5"/><circle cx="31.0" cy="31" r="7" fill="#174e42" stroke="#174e42" stroke-width="1.5"/><circle cx="50.0" cy="31" r="7" fill="#174e42" stroke="#174e42" stroke-width="1.5"/></g><rect x="180" y="185" width="64" height="64" fill="#fff" stroke="#174e42" stroke-width="1.5"/><text x="212" y="229" font-size="32" text-anchor="middle" font-weight="bold">?</text><rect x="300" y="55" width="64" height="64" fill="#fff" stroke="#174e42" stroke-width="1.5"/><g data-role="option" data-label="A" transform="translate(301 56)" data-model='{"shape":"pentagon","count":2}'><polygon points="21.5,22.5 29.6,28.4 26.5,37.9 16.5,37.9 13.4,28.4" fill="#174e42" stroke="#174e42" stroke-width="1.5" stroke-linejoin="round"/><polygon points="40.5,22.5 48.6,28.4 45.5,37.9 35.5,37.9 32.4,28.4" fill="#174e42" stroke="#174e42" stroke-width="1.5" stroke-linejoin="round"/></g><text x="390" y="95" font-size="18" text-anchor="middle" font-weight="normal">A</text><rect x="440" y="55" width="64" height="64" fill="#fff" stroke="#174e42" stroke-width="1.5"/><g data-role="option" data-label="B" transform="translate(441 56)" data-model='{"shape":"square","count":1}'><polygon points="37.0,25.0 37.0,37.0 25.0,37.0 25.0,25.0" fill="#174e42" stroke="#174e42" stroke-width="1.5" stroke-linejoin="round"/></g><text x="530" y="95" font-size="18" text-anchor="middle" font-weight="normal">B</text><rect x="300" y="160" width="64" height="64" fill="#fff" stroke="#174e42" stroke-width="1.5"/><g data-role="option" data-label="C" transform="translate(301 161)" data-model='{"shape":"circle","count":1}'><circle cx="31.0" cy="31" r="7" fill="#174e42" stroke="#174e42" stroke-width="1.5"/></g><text x="390" y="200" font-size="18" text-anchor="middle" font-weight="normal">C</text><rect x="440" y="160" width="64" height="64" fill="#fff" stroke="#174e42" stroke-width="1.5"/><g data-role="option" data-label="D" transform="translate(441 161)" data-model='{"shape":"circle","count":3}'><circle cx="12.0" cy="31" r="7" fill="#174e42" stroke="#174e42" stroke-width="1.5"/><circle cx="31.0" cy="31" r="7" fill="#174e42" stroke="#174e42" stroke-width="1.5"/><circle cx="50.0" cy="31" r="7" fill="#174e42" stroke="#174e42" stroke-width="1.5"/></g><text x="530" y="200" font-size="18" text-anchor="middle" font-weight="normal">D</text></g></svg>