<svg xmlns="http://www.w3.org/2000/svg" viewBox="0 0 600 285" role="img" data-question="entrance-200-174" data-type="series" data-model='{"kind":"sides"}'><defs><pattern id="stripes" width="7" height="7" patternUnits="userSpaceOnUse" patternTransform="rotate(45)"><rect width="7" height="7" fill="#fff"/><line x1="0" y1="0" x2="0" y2="7" stroke="#174e42" stroke-width="3"/></pattern></defs><rect width="600" height="285" rx="12" fill="#f8faf7"/><g font-family="Arial,sans-serif" font-size="18" fill="#142e27"><text x="24" y="30" font-size="18" text-anchor="start" font-weight="normal">Which option comes next in the series?</text><g data-role="frame" data-label="" transform="translate(30 45)" data-model='{"sides":3,"fill":"black"}'><polygon points="40.0,8.0 69.4,59.0 10.6,59.0" fill="#174e42" stroke="#174e42" stroke-width="2.5" stroke-linejoin="round"/></g><g data-role="frame" data-label="" transform="translate(140 45)" data-model='{"sides":4,"fill":"white"}'><polygon points="64.0,18.0 64.0,66.0 16.0,66.0 16.0,18.0" fill="#fff" stroke="#174e42" stroke-width="2.5" stroke-linejoin="round"/></g><g data-role="frame" data-label="" transform="translate(250 45)" data-model='{"sides":5,"fill":"black"}'><polygon points="40.0,8.0 72.3,31.5 60.0,69.5 20.0,69.5 7.7,31.5" fill="#174e42" stroke="#174e42" stroke-width="2.5" stroke-linejoin="round"/></g><g data-role="frame" data-label="" transform="translate(360 45)" data-model='{"sides":6,"fill":"white"}'><polygon points="57.0,12.6 74.0,42.0 57.0,71.4 23.0,71.4 6.0,42.0 23.0,12.6" fill="#fff" stroke="#174e42" stroke-width="2.5" stroke-linejoin="round"/></g><text x="500" y="95" font-size="40" text-anchor="middle" font-weight="bold">?</text><g data-role="option" data-label="A" transform="translate(45 160)" data-model='{"sides":7,"fill":"black"}'><polygon points="40.0,8.0 66.6,20.8 73.1,49.6 54.8,72.6 25.2,72.6 6.9,49.6 13.4,20.8" fill="#174e42" stroke="#174e42" stroke-width="2.5" stroke-linejoin="round"/></g><text x="85" y="265" font-size="18" text-anchor="middle" font-weight="normal">A</text><g data-role="option" data-label="B" transform="translate(185 160)" data-model='{"sides":6,"fill":"black"}'><polygon points="57.0,12.6 74.0,42.0 57.0,71.4 23.0,71.4 6.0,42.0 23.0,12.6" fill="#174e42" stroke="#174e42" stroke-width="2.5" stroke-linejoin="round"/></g><text x="225" y="265" font-size="18" text-anchor="middle" font-weight="normal">B</text><g data-role="option" data-label="C" transform="translate(325 160)" data-model='{"sides":7,"fill":"white"}'><polygon points="40.0,8.0 66.6,20.8 73.1,49.6 54.8,72.6 25.2,72.6 6.9,49.6 13.4,20.8" fill="#fff" stroke="#174e42" stroke-width="2.5" stroke-linejoin="round"/></g><text x="365" y="265" font-size="18" text-anchor="middle" font-weight="normal">C</text><g data-role="option" data-label="D" transform="translate(465 160)" data-model='{"sides":8,"fill":"black"}'><polygon points="53.0,10.6 71.4,29.0 71.4,55.0 53.0,73.4 27.0,73.4 8.6,55.0 8.6,29.0 27.0,10.6" fill="#174e42" stroke="#174e42" stroke-width="2.5" stroke-linejoin="round"/></g><text x="505" y="265" font-size="18" text-anchor="middle" font-weight="normal">D</text></g></svg>