<svg xmlns="http://www.w3.org/2000/svg" viewBox="0 0 120 120"><defs><linearGradient id="b" x1="0" y1="0" x2="1" y2="1"><stop offset="0" stop-color="#4fae7b"/><stop offset="1" stop-color="#145a42"/></linearGradient></defs><ellipse cx="60" cy="110" rx="40" ry="6" fill="#06291f" opacity=".35"/><g stroke="#1d3b30" stroke-width="3" stroke-linejoin="round" stroke-linecap="round"><path d="M46 24q14-20 28 0" fill="none" stroke-width="9"/><path d="M46 24q14-20 28 0" fill="none" stroke="#2f7a55" stroke-width="4"/><rect x="16" y="40" width="12" height="54" rx="6" fill="#145a42"/><rect x="92" y="40" width="12" height="54" rx="6" fill="#145a42"/><rect x="24" y="22" width="72" height="84" rx="20" fill="url(#b)"/><path d="M32 42q28-12 56 0" fill="none"/><rect x="34" y="60" width="52" height="38" rx="11" fill="#1f6b50"/><path d="M38 70h44"/></g><path d="M32 42q28-12 56 0" fill="none" stroke="#e3b12c" stroke-width="2.5" stroke-dasharray="3 3"/><path d="M38 70h44" stroke="#e3b12c" stroke-width="2.5" stroke-dasharray="3 3"/><g stroke="#1d3b30" stroke-width="2" stroke-linejoin="round"><rect x="84" y="36" width="6" height="12" rx="2" fill="#e3b12c"/><rect x="78" y="66" width="6" height="12" rx="2" fill="#e3b12c"/><path d="M60 76l3 6.2 6.8 1-4.9 4.8 1.2 6.7L60 91.5l-6.1 3.2 1.2-6.7-4.9-4.8 6.8-1z" fill="#ffe685"/></g><path d="M32 30c6-5 12-7 18-7" fill="none" stroke="#fff" stroke-width="4" stroke-linecap="round" opacity=".5"/></svg>
