<svg xmlns="http://www.w3.org/2000/svg" viewBox="0 0 120 120"><defs><linearGradient id="q" x1="0" y1="0" x2="0" y2="1"><stop offset="0" stop-color="#7ef0a0"/><stop offset="1" stop-color="#1c9152"/></linearGradient></defs><ellipse cx="60" cy="108" rx="40" ry="6" fill="#06291f" opacity=".35"/><g stroke="#1d3b30" stroke-width="3" stroke-linejoin="round" stroke-linecap="round"><path d="M50 42 22 94q-3 8 8 8h60q11 0 8-8L70 42V18H50z" fill="#e9f7f4" fill-opacity=".85"/><path d="M36 68 22 94q-3 8 8 8h60q11 0 8-8L84 68q-24 8-48 0z" fill="url(#q)"/><rect x="46" y="8" width="28" height="13" rx="3" fill="#c98b4e"/></g><g fill="none" stroke="#1d3b30" stroke-width="2.2"><circle cx="50" cy="86" r="4.5" fill="#bdf5cf"/><circle cx="68" cy="80" r="3.2" fill="#bdf5cf"/><circle cx="76" cy="92" r="2.8" fill="#bdf5cf"/><circle cx="58" cy="58" r="3.2" fill="#e9f7f4"/><circle cx="64" cy="46" r="2.4" fill="#e9f7f4"/></g><path d="M52 24v18L32 80" fill="none" stroke="#fff" stroke-width="4" stroke-linecap="round" opacity=".7"/></svg>
