<svg xmlns="http://www.w3.org/2000/svg" viewBox="0 0 120 120"><defs><linearGradient id="g" x1="0" y1="0" x2="1" y2="1"><stop offset="0" stop-color="#ffe685"/><stop offset="1" stop-color="#c99200"/></linearGradient><radialGradient id="f" cx=".4" cy=".35" r=".8"><stop offset="0" stop-color="#fff"/><stop offset="1" stop-color="#dfeae3"/></radialGradient></defs><ellipse cx="60" cy="108" rx="34" ry="6" fill="#06291f" opacity=".35"/><g stroke="#1d3b30" stroke-width="3" stroke-linejoin="round" stroke-linecap="round"><rect x="56" y="17" width="8" height="12" fill="#c99200"/><rect x="50" y="9" width="20" height="10" rx="4" fill="url(#g)"/><rect x="84" y="27" width="10" height="13" rx="2" transform="rotate(45 89 34)" fill="url(#g)"/><circle cx="60" cy="67" r="38" fill="url(#g)"/><circle cx="60" cy="67" r="29" fill="url(#f)"/><path d="M60 67V46" stroke-width="4"/><path d="M60 67l17-9" stroke="#d64541"/></g><g fill="#1d3b30"><rect x="58.5" y="40" width="3" height="7" rx="1.5"/><rect x="58.5" y="87" width="3" height="7" rx="1.5"/><rect x="33" y="65.5" width="7" height="3" rx="1.5"/><rect x="80" y="65.5" width="7" height="3" rx="1.5"/><circle cx="74" cy="47" r="1.8"/><circle cx="80" cy="81" r="1.8"/><circle cx="46" cy="87" r="1.8"/><circle cx="40" cy="53" r="1.8"/></g><circle cx="60" cy="67" r="4.5" fill="#d64541" stroke="#1d3b30" stroke-width="2.5"/><path d="M31 54a31 31 0 0 1 17-19" fill="none" stroke="#fff" stroke-width="5" stroke-linecap="round" opacity=".7"/></svg>
